<?xml version="1.0" standalone="no"?><!DOCTYPE svg PUBLIC "-//W3C//DTD SVG 1.1//EN" "http://www.w3.org/Graphics/SVG/1.1/DTD/svg11.dtd"><svg width="32.03125" height="32" viewBox="0 0 32.03125 32" version="1.1" xmlns="http://www.w3.org/2000/svg" xmlns:xlink="http://www.w3.org/1999/xlink"><defs><style type="text/css"><![CDATA[
@font-face { font-family: ifont; src: url("//at.alicdn.com/t/font_1442373896_4754455.eot?#iefix") format("embedded-opentype"), url("//at.alicdn.com/t/font_1442373896_4754455.woff") format("woff"), url("//at.alicdn.com/t/font_1442373896_4754455.ttf") format("truetype"), url("//at.alicdn.com/t/font_1442373896_4754455.svg#ifont") format("svg"); }

]]></style></defs><g class="transform-group"><g transform="scale(0.03125, 0.03125)"><path d="M18.666667 120.888889c12.444444-8.888889 29.333333-7.111111 44.444444-8 306.666667 0.888889 613.333333-0.888889 920 0.888889 27.555556-0.888889 44.444444 26.666667 41.777778 51.555555v701.333334c3.555556 28.444444-23.111111 51.555556-50.666667 49.777777-304 0.888889-608 0-911.111111 0.888889-25.777778 2.666667-61.333333-8.888889-61.333333-40.888889C0 646.222222 1.777778 416 0.888889 185.777778c0-22.222222-4.444444-50.666667 17.777778-64.888889zM55.111111 168.888889v690.666667H968.888889c0-230.222222-0.888889-460.444444 0.888889-689.777778-304.888889-1.777778-609.777778-0.888889-914.666667-0.888889zM134.222222 250.666667v-38.222223h38.222222c0 12.444444-0.888889 24.888889-0.888888 38.222223 12.444444 0 24 0.888889 36.444444 0.888889v-39.111112H248.888889v38.222223h36.444444v-38.222223h38.222223v38.222223h35.555555v-38.222223H400v38.222223h33.777778v-38.222223h40.888889c0 12.444444 0 25.777778 0.888889 38.222223 11.555556 0 24 0 35.555555-0.888889v-38.222222h40.888889c0 13.333333 0.888889 25.777778 0.888889 39.111111 10.666667 0 22.222222 0 32.888889-0.888889v-38.222222h40.888889v38.222222h36.444444c0-12.444444 0-24.888889-0.888889-38.222222h40.888889v38.222222h33.777778v-38.222222h40.888889c0 12.444444 0 24.888889-0.888889 38.222222h36.444444v-38.222222h38.222223v38.222222h35.555555v-38.222222h40.888889v40.888888h-38.222222c0 8-0.888889 24.888889-1.777778 32.888889 13.333333 0 26.666667 0.888889 40 0.888889v40h-38.222222v36.444445h38.222222v40.888889h-38.222222v33.777777c12.444444 0 24.888889 0 38.222222-0.888889 0 13.333333 0 27.555556 0.888889 40.888889h-39.111111v35.555556h38.222222V551.111111h-38.222222c0 11.555556 0 24-0.888889 35.555556 13.333333 0 25.777778 0 39.111111 0.888889v40.888888h-38.222222v35.555556h38.222222V702.222222h-38.222222v35.555556h38.222222v40.888889h-38.222222v38.222222h-40.888889v-38.222222h-33.777778v38.222222h-40.888889v-38.222222H737.777778v38.222222h-38.222222v-38.222222h-36.444445v38.222222H622.222222v-38.222222h-36.444444v38.222222h-38.222222v-38.222222h-35.555556v38.222222H471.111111v-38.222222h-35.555555v38.222222h-38.222223v-38.222222h-35.555555v38.222222h-40.888889v-38.222222c-8-0.888889-24.888889-1.777778-32.888889-1.777778 0 13.333333-0.888889 26.666667-0.888889 40h-40v-38.222222h-36.444444v38.222222h-40.888889v-36.444445c-17.777778 5.333333-32.888889-5.333333-40.888889-20.444444 8-15.111111 22.222222-34.666667 40.888889-19.555556 1.777778 11.555556 2.666667 24 3.555555 35.555556h34.666667V737.777778H248.888889v38.222222h35.555555V737.777778h38.222223v38.222222c11.555556 0 24 0 35.555555 0.888889 0-12.444444 0-25.777778 0.888889-39.111111H400v38.222222h33.777778V737.777778h40.888889v38.222222h35.555555V737.777778H551.111111v38.222222h33.777778V737.777778h40.888889v38.222222h35.555555V737.777778H702.222222v38.222222h32.888889V737.777778h40.888889v38.222222h35.555556V737.777778h35.555555v-38.222222h38.222222v-33.777778h-38.222222v-40.888889h38.222222v-35.555556h-38.222222v-40.888889h38.222222v-33.777777h-38.222222v-40.888889h38.222222v-35.555556h-38.222222V400h38.222222c0-8.888889 0-27.555556-0.888889-36.444444h-38.222222v-40.888889h38.222222c0-8.888889 0-27.555556 0.888889-36.444445h-38.222222v-35.555555h-33.777778v35.555555h-40.888889v-36.444444h-36.444444c0 11.555556 0.888889 24 0.888889 35.555555-13.333333 0-26.666667-0.888889-40-0.888889 0.888889-11.555556 1.777778-23.111111 1.777778-34.666666h-36.444445v35.555555c-13.333333 0-26.666667 0-40.888889 0.888889v-36.444444h-35.555555v35.555555h-38.222222V248.888889h-35.555556v35.555555H471.111111v-36.444444h-35.555555v35.555556h-38.222223v-35.555556h-35.555555v35.555556h-40.888889v-35.555556h-33.777778v35.555556h-40.888889v-35.555556h-35.555555V284.444444c-9.777778 0-28.444444-0.888889-38.222223-1.777777 0 13.333333-0.888889 27.555556-0.888888 40.888889-16.888889-2.666667-33.777778-6.222222-50.666667-8.888889l13.333333-1.777778L133.333333 284.444444c-13.333333 0-25.777778-0.888889-39.111111-0.888888 0-9.777778 0.888889-28.444444 0.888889-38.222223 10.666667 5.333333 29.333333 5.333333 39.111111 5.333334z m2.666667 1.777777v33.777778h33.777778v-33.777778h-33.777778z m714.666667 489.777778v35.555556h36.444444v-36.444445c-12.444444 0.888889-24.888889 0.888889-36.444444 0.888889zM96 321.777778c44.444444-12.444444 44.444444 57.777778 0 46.222222v-46.222222zM357.333333 348.444444H666.666667v64.888889H357.333333v-64.888889zM172.444444 406.222222c-43.555556 12.444444-43.555556-60.444444 0-46.222222v46.222222zM240.888889 384.888889H328.888889v64.888889H240c13.333333-10.666667 27.555556-22.222222 40.888889-32.888889-14.222222-11.555556-27.555556-21.333333-40-32zM695.111111 384.888889h89.777778l-42.666667 32c14.222222 11.555556 28.444444 22.222222 42.666667 32.888889H695.111111v-64.888889zM96 399.111111c44.444444-13.333333 44.444444 56.888889 0 43.555556v-43.555556zM172.444444 480.888889c-44.444444 14.222222-43.555556-58.666667 0-46.222222v46.222222zM96.888889 472.888889c43.555556-10.666667 44.444444 59.555556 0 46.222222-0.888889-11.555556-0.888889-34.666667 0-46.222222zM225.777778 495.111111h112.888889v31.111111H225.777778v-31.111111zM364.444444 495.111111h60.444445c0 10.666667-0.888889 21.333333-0.888889 32-19.555556-0.888889-39.111111-0.888889-59.555556-0.888889v-31.111111zM448.888889 495.111111h134.222222v31.111111H448c0-8 0.888889-24 0.888889-31.111111zM608.888889 495.111111h122.666667c0 10.666667 0 21.333333-0.888889 31.111111H608.888889v-31.111111zM757.333333 495.111111h40.888889v31.111111h-40.888889c0.888889-8 0-23.111111 0-31.111111zM172.444444 554.666667c-44.444444 17.777778-43.555556-56 0-42.666667v42.666667zM96.888889 555.555556c8.888889-3.555556 27.555556-10.666667 36.444444-14.222223-0.888889 17.777778-1.777778 35.555556-1.777777 53.333334-8.888889-1.777778-27.555556-4.444444-36.444445-5.333334 0-11.555556 0.888889-23.111111 1.777778-33.777777zM225.777778 567.111111h69.333333v31.111111h-69.333333v-31.111111zM319.111111 567.111111H417.777778v31.111111H319.111111v-31.111111zM443.555556 567.111111H488.888889c0 9.777778 0.888889 20.444444 0.888889 30.222222-15.111111 0-31.111111 0.888889-46.222222 0.888889v-31.111111zM514.666667 567.111111h133.333333v31.111111H516.444444c-0.888889-8-1.777778-23.111111-1.777777-31.111111zM673.777778 567.111111h124.444444v31.111111h-124.444444v-31.111111zM129.777778 607.111111c8-18.666667 26.666667-24.888889 45.333333-17.777778-3.555556 16 3.555556 43.555556-21.333333 43.555556-9.777778-6.222222-17.777778-15.111111-24-25.777778zM95.111111 630.222222c9.777778-2.666667 28.444444-8 38.222222-10.666666-0.888889 17.777778-0.888889 34.666667-1.777777 52.444444-8.888889-1.777778-26.666667-4.444444-35.555556-5.333333 0-12.444444 0-24.888889-0.888889-36.444445zM225.777778 639.111111h131.555555v28.444445H225.777778v-28.444445zM383.111111 639.111111h67.555556c0 7.111111 0 21.333333-0.888889 28.444445h-66.666667c0.888889-7.111111 0-21.333333 0-28.444445zM477.333333 639.111111h108.444445c0 7.111111-0.888889 21.333333-0.888889 28.444445H477.333333v-28.444445zM612.444444 638.222222c21.333333 0 43.555556-0.888889 64.888889 2.666667 0.888889 7.111111 3.555556 20.444444 4.444445 26.666667h-71.111111c0-7.111111 0.888889-22.222222 1.777777-29.333334zM703.111111 638.222222c32 0.888889 63.111111 0.888889 95.111111 0.888889v28.444445H702.222222c0-7.111111 0.888889-22.222222 0.888889-29.333334zM129.777778 684.444444c8-16 24-28.444444 42.666666-20.444444v40c-18.666667 8.888889-34.666667-3.555556-42.666666-19.555556zM96 703.111111c8.888889-1.777778 26.666667-4.444444 35.555556-5.333333 0 17.777778 0.888889 34.666667 1.777777 52.444444-8.888889-2.666667-28.444444-8-37.333333-10.666666v-36.444445zM96 779.555556c8-0.888889 24.888889-3.555556 32.888889-4.444445l10.666667 42.666667c-10.666667 0-32.888889 0.888889-43.555556 0.888889v-39.111111z" fill="#bed8fa"></path></g></g></svg>