<?xml version="1.0" standalone="no"?><!DOCTYPE svg PUBLIC "-//W3C//DTD SVG 1.1//EN" "http://www.w3.org/Graphics/SVG/1.1/DTD/svg11.dtd"><svg width="33.84375" height="32" viewBox="0 0 33.84375 32" version="1.1" xmlns="http://www.w3.org/2000/svg" xmlns:xlink="http://www.w3.org/1999/xlink"><defs><style type="text/css"><![CDATA[
@font-face { font-family: ifont; src: url("//at.alicdn.com/t/font_1442373896_4754455.eot?#iefix") format("embedded-opentype"), url("//at.alicdn.com/t/font_1442373896_4754455.woff") format("woff"), url("//at.alicdn.com/t/font_1442373896_4754455.ttf") format("truetype"), url("//at.alicdn.com/t/font_1442373896_4754455.svg#ifont") format("svg"); }

]]></style></defs><g class="transform-group"><g transform="scale(0.03125, 0.03125)"><path d="M921.177689 520.539555zl-379.893547-336.425811-380.080204 336.565804 0 480.921619c0 12.436019 10.032811 22.398833 22.445498 22.398833l237.544295 0 0-210.875684c0-12.412687 9.962814-22.445498 22.398833-22.445498l195.173168 0c12.436019 0 22.398833 10.032811 22.398833 22.445498l0 210.875684 237.614291 0c12.412687 0 22.398833-9.962814 22.398833-22.398833l0-481.061611zm-759.973751 0.139993zM539.090922 0l-539.088589 477.351805 56.785709 64.046664 484.491433-429.030988 484.398104 429.030988 56.673715-64.046664-538.971929-477.351805-2.099891 2.42654-2.193219-2.42654zM161.203937 68.713088l136.656216 0-1.189938 80.939118-135.466278 122.37696 0-203.316077z" fill="#bed8fa"></path></g></g></svg>