<?xml version="1.0" standalone="no"?><!DOCTYPE svg PUBLIC "-//W3C//DTD SVG 1.1//EN" "http://www.w3.org/Graphics/SVG/1.1/DTD/svg11.dtd"><svg width="32" height="32" viewBox="0 0 32 32" version="1.1" xmlns="http://www.w3.org/2000/svg" xmlns:xlink="http://www.w3.org/1999/xlink"><defs><style type="text/css"><![CDATA[
@font-face { font-family: ifont; src: url("//at.alicdn.com/t/font_1442373896_4754455.eot?#iefix") format("embedded-opentype"), url("//at.alicdn.com/t/font_1442373896_4754455.woff") format("woff"), url("//at.alicdn.com/t/font_1442373896_4754455.ttf") format("truetype"), url("//at.alicdn.com/t/font_1442373896_4754455.svg#ifont") format("svg"); }

]]></style></defs><g class="transform-group"><g transform="scale(0.03125, 0.03125)"><path d="M864.605733 757.058298c-5.342682 5.194302-12.267395 7.791453-19.190061 7.791453-7.136537 0-14.277168-2.756787-19.674085-8.269337-10.597359-10.847046-10.382465-28.201296 0.48607-38.776142 50.588165-49.27424 79.622432-123.532501 79.622432-203.735148s-29.034267-154.487513-79.622432-203.759707c-10.868535-10.574846-11.083429-27.929096-0.48607-38.774095 10.630105-10.843976 28.02017-11.036357 38.864146-0.484024 61.135382 59.558467 96.210225 148.115386 96.210225 243.016803C960.815959 608.945983 925.741116 697.504948 864.605733 757.058298zM772.633019 672.27738c-5.152347 4.28663-11.407817 6.373151-17.607006 6.373151-7.862062 0-15.672958-3.347235-21.120017-9.827833-9.715269-11.621688-8.18645-28.921703 3.462868-38.642089 30.861892-25.734104 49.299823-69.140707 49.299823-116.112508 0-47.638997-18.839067-91.423199-50.4009-117.077485-11.753695-9.588379-13.524015-26.857694-3.943822-38.58683 9.607822-11.673877 26.91807-13.524015 38.671765-3.935636 44.226271 35.987632 70.635757 95.621824 70.635757 159.599951C841.630463 577.078181 815.839053 636.234489 772.633019 672.27738zM612.816127 623.233384l0 274.882558c0 10.387581-5.848195 19.866467-15.087627 24.524556-3.872191 1.926886-8.088212 2.89084-12.254092 2.89084-5.792936 0-11.558244-1.847068-16.365736-5.460362L283.036261 733.160006l-192.371332 0c-15.115256 0-27.481911-21.004383-27.481911-36.157501L63.183018 320.93543c0-15.153118 12.366655-27.481911 27.481911-27.481911l192.371332 0 293.088198-186.231495c8.246825-6.208399 17.48421-6.139837 26.720571-1.561565 9.239432 4.65502 9.971096 14.133905 9.971096 24.524556L612.816127 403.38014c60.709687 0 109.926622 49.216935 109.926622 109.926622S673.525813 623.233384 612.816127 623.233384zM557.853327 183.526897 310.518173 348.417341l-192.371332 0 0 329.779865 192.371332 0 247.614517 165.18925-0.099261-235.308237c-0.057305-0.032746-0.12382-0.057305-0.181125-0.091074l0-94.679359c0 0.480954 0.128937 0.926092 0.140193 1.403976l0-2.797719c-0.011256 0.475837-0.140193 0.917906-0.140193 1.393743L557.852304 418.627403c0.032746-0.019443 0.068562-0.030699 0.099261-0.049119L557.853327 183.526897zM612.816127 458.343963l0 109.926622c30.356378 0 54.962799-24.607444 54.962799-54.962799S643.172505 458.343963 612.816127 458.343963z" fill="#bed8fa"></path></g></g></svg>