<?xml version="1.0" standalone="no"?><!DOCTYPE svg PUBLIC "-//W3C//DTD SVG 1.1//EN" "http://www.w3.org/Graphics/SVG/1.1/DTD/svg11.dtd"><svg width="32" height="32" viewBox="0 0 32 32" version="1.1" xmlns="http://www.w3.org/2000/svg" xmlns:xlink="http://www.w3.org/1999/xlink"><defs><style type="text/css"><![CDATA[
@font-face { font-family: ifont; src: url("//at.alicdn.com/t/font_1442373896_4754455.eot?#iefix") format("embedded-opentype"), url("//at.alicdn.com/t/font_1442373896_4754455.woff") format("woff"), url("//at.alicdn.com/t/font_1442373896_4754455.ttf") format("truetype"), url("//at.alicdn.com/t/font_1442373896_4754455.svg#ifont") format("svg"); }

]]></style></defs><g class="transform-group"><g transform="scale(0.03125, 0.03125)"><path d="M938.666667 238.933333 768 238.933333C739.771733 238.933333 716.8 215.9616 716.8 187.733333L716.8 102.4C716.8 92.9792 709.1712 85.333333 699.733333 85.333333 690.295467 85.333333 682.666667 92.9792 682.666667 102.4L682.666667 187.733333C682.666667 234.786133 720.9472 273.066667 768 273.066667L921.6 273.066667 921.6 938.666667C921.6 967.3728 899.1232 989.866667 870.4 989.866667L153.6 989.866667C125.371733 989.866667 102.4 966.894933 102.4 938.666667L102.4 85.333333C102.4 57.105067 125.371733 34.133333 153.6 34.133333 163.0208 34.133333 170.666667 26.487467 170.666667 17.066667 170.666667 7.645867 163.0208 0 153.6 0 106.5472 0 68.266667 38.280533 68.266667 85.333333L68.266667 938.666667C68.266667 985.719467 106.5472 1024 153.6 1024L870.4 1024C918.254933 1024 955.733333 986.5216 955.733333 938.666667L955.733333 256C955.733333 246.5792 948.104533 238.933333 938.666667 238.933333M170.666667 204.8C170.666667 235.639467 181.060267 264.021333 198.365867 286.907733 185.9072 299.1104 170.666667 321.518933 170.666667 358.4 170.666667 395.281067 185.9072 417.6896 198.365867 429.892267 181.060267 452.778667 170.666667 481.160533 170.666667 512 170.666667 546.491733 183.620267 577.9456 204.8 602.0096L204.8 665.6C204.8 675.0208 212.445867 682.666667 221.866667 682.666667 231.287467 682.666667 238.933333 675.0208 238.933333 665.6L238.933333 630.050133C259.037867 641.7408 282.3168 648.533333 307.2 648.533333 382.481067 648.533333 443.733333 587.281067 443.733333 512 443.733333 436.718933 382.481067 375.466667 307.2 375.466667 275.012267 375.466667 245.435733 386.730667 222.071467 405.435733 214.7328 398.1824 204.8 383.744 204.8 358.4 204.8 333.038933 214.7328 318.6176 222.071467 311.364267 245.435733 330.069333 275.012267 341.333333 307.2 341.333333 382.481067 341.333333 443.733333 280.081067 443.733333 204.8 443.733333 129.518933 382.481067 68.266667 307.2 68.266667 282.3168 68.266667 259.037867 75.0592 238.933333 86.7328L238.933333 34.133333 692.667733 34.133333 858.333867 199.799467C861.661867 203.127467 866.030933 204.8 870.4 204.8 874.769067 204.8 879.138133 203.127467 882.466133 199.799467 889.1392 193.1264 889.1392 182.340267 882.466133 175.6672L711.799467 5.000533C708.608 1.792 704.273067 0 699.733333 0L221.866667 0C212.445867 0 204.8 7.645867 204.8 17.066667L204.8 114.7904C183.620267 138.8544 170.666667 170.308267 170.666667 204.8L170.666667 204.8ZM409.6 512C409.6 568.4736 363.6736 614.4 307.2 614.4 250.7264 614.4 204.8 568.4736 204.8 512 204.8 455.5264 250.7264 409.6 307.2 409.6 363.6736 409.6 409.6 455.5264 409.6 512L409.6 512ZM409.6 204.8C409.6 261.2736 363.6736 307.2 307.2 307.2 250.7264 307.2 204.8 261.2736 204.8 204.8 204.8 148.3264 250.7264 102.4 307.2 102.4 363.6736 102.4 409.6 148.3264 409.6 204.8L409.6 204.8ZM322.645333 174.336C329.437867 177.783467 334.933333 183.483733 338.158933 190.378667 341.0432 196.590933 347.204267 200.226133 353.621333 200.226133 356.0448 200.226133 358.5024 199.714133 360.840533 198.621867 369.373867 194.628267 373.060267 184.4736 369.083733 175.940267 362.666667 162.184533 351.675733 150.818133 338.158933 143.9232 329.762133 139.690667 319.470933 142.984533 315.1872 151.381333 310.920533 159.778133 314.248533 170.052267 322.645333 174.336M322.645333 481.058133C329.437867 484.522667 334.933333 490.222933 338.158933 497.1008 341.0432 503.313067 347.204267 506.948267 353.621333 506.948267 356.0448 506.948267 358.5024 506.436267 360.840533 505.344 369.373867 501.3504 373.060267 491.195733 369.083733 482.6624 362.666667 468.923733 351.675733 457.557333 338.158933 450.645333 329.762133 446.378667 319.470933 449.706667 315.1872 458.103467 310.920533 466.500267 314.248533 476.7744 322.645333 481.058133M563.2 409.6 494.933333 409.6C485.512533 409.6 477.866667 417.245867 477.866667 426.666667 477.866667 436.087467 485.512533 443.733333 494.933333 443.733333L563.2 443.733333C572.637867 443.733333 580.266667 436.087467 580.266667 426.666667 580.266667 417.245867 572.637867 409.6 563.2 409.6M768 409.6 631.466667 409.6C622.0288 409.6 614.4 417.245867 614.4 426.666667 614.4 436.087467 622.0288 443.733333 631.466667 443.733333L768 443.733333C777.437867 443.733333 785.066667 436.087467 785.066667 426.666667 785.066667 417.245867 777.437867 409.6 768 409.6M494.933333 529.066667C494.933333 538.487467 502.5792 546.133333 512 546.133333L597.333333 546.133333C606.7712 546.133333 614.4 538.487467 614.4 529.066667 614.4 519.645867 606.7712 512 597.333333 512L512 512C502.5792 512 494.933333 519.645867 494.933333 529.066667M733.866667 546.133333C743.304533 546.133333 750.933333 538.487467 750.933333 529.066667 750.933333 519.645867 743.304533 512 733.866667 512L665.6 512C656.162133 512 648.533333 519.645867 648.533333 529.066667 648.533333 538.487467 656.162133 546.133333 665.6 546.133333L733.866667 546.133333M256 750.933333 358.4 750.933333C367.8208 750.933333 375.466667 743.287467 375.466667 733.866667 375.466667 724.445867 367.8208 716.8 358.4 716.8L256 716.8C246.5792 716.8 238.933333 724.445867 238.933333 733.866667 238.933333 743.287467 246.5792 750.933333 256 750.933333M785.066667 733.866667C785.066667 724.445867 777.437867 716.8 768 716.8L665.6 716.8C656.162133 716.8 648.533333 724.445867 648.533333 733.866667 648.533333 743.287467 656.162133 750.933333 665.6 750.933333L768 750.933333C777.437867 750.933333 785.066667 743.287467 785.066667 733.866667M614.4 733.866667C614.4 724.445867 606.7712 716.8 597.333333 716.8L426.666667 716.8C417.245867 716.8 409.6 724.445867 409.6 733.866667 409.6 743.287467 417.245867 750.933333 426.666667 750.933333L597.333333 750.933333C606.7712 750.933333 614.4 743.287467 614.4 733.866667M460.8 631.466667C460.8 640.887467 468.445867 648.533333 477.866667 648.533333L733.866667 648.533333C743.304533 648.533333 750.933333 640.887467 750.933333 631.466667 750.933333 622.045867 743.304533 614.4 733.866667 614.4L477.866667 614.4C468.445867 614.4 460.8 622.045867 460.8 631.466667M256 853.333333 460.8 853.333333C470.2208 853.333333 477.866667 845.687467 477.866667 836.266667 477.866667 826.845867 470.2208 819.2 460.8 819.2L256 819.2C246.5792 819.2 238.933333 826.845867 238.933333 836.266667 238.933333 845.687467 246.5792 853.333333 256 853.333333M529.066667 853.333333 699.733333 853.333333C709.1712 853.333333 716.8 845.687467 716.8 836.266667 716.8 826.845867 709.1712 819.2 699.733333 819.2L529.066667 819.2C519.645867 819.2 512 826.845867 512 836.266667 512 845.687467 519.645867 853.333333 529.066667 853.333333" fill="#bed8fa"></path></g></g></svg>