<?xml version="1.0" standalone="no"?><!DOCTYPE svg PUBLIC "-//W3C//DTD SVG 1.1//EN" "http://www.w3.org/Graphics/SVG/1.1/DTD/svg11.dtd"><svg width="33.59375" height="32" viewBox="0 0 33.59375 32" version="1.1" xmlns="http://www.w3.org/2000/svg" xmlns:xlink="http://www.w3.org/1999/xlink"><defs><style type="text/css"><![CDATA[
@font-face { font-family: ifont; src: url("//at.alicdn.com/t/font_1442373896_4754455.eot?#iefix") format("embedded-opentype"), url("//at.alicdn.com/t/font_1442373896_4754455.woff") format("woff"), url("//at.alicdn.com/t/font_1442373896_4754455.ttf") format("truetype"), url("//at.alicdn.com/t/font_1442373896_4754455.svg#ifont") format("svg"); }

]]></style></defs><g class="transform-group"><g transform="scale(0.03125, 0.03125)"><path d="M1074.436096 999.842203C1075.049799 1012.872452 1064.773493 1024 1051.743815 1024L207.582859 1024c-13.007563 0-23.30193-11.127548-22.668322-24.157797 2.930295-51.674008 13.849792-172.691703 52.936983-228.562668 59.25094-84.250598 254.626079-55.264633 309.470518-130.681957 6.102018-8.197455 7.150658-30.473229 7.150658-47.699311 0-6.512996-2.755215-12.613171-7.563479-17.006771-46.868139-42.026701-78.589047-115.566057-79.208279-186.565823-1.476205-139.303292 18.897641-254.858291 163.022097-254.858291 139.708741 0 161.133071 114.502673 161.133071 252.748109 0 72.488872-31.918104 146.441049-78.981596 188.676004-4.63687 4.194561-7.346011 10.274463-7.563479 16.590263-0.416507 17.203967 0.633976 39.699052 6.732307 48.113975 55.463672 75.417324 244.94136 48.311171 307.793431 130.681957 41.132869 54.603013 51.866228 176.673219 54.599327 228.564511M146.452844 817.902561l-125.61955 0c-11.979195 0-21.447372-10.075424-20.801618-22.275773C2.762273 748.146788 12.633591 636.815838 48.769145 585.552256c54.409503-77.527506 234.251311-50.867347 284.661606-120.188183 5.464356-7.563479 6.514839-27.937325 6.514839-43.69826 0-5.87902-2.504573-11.55163-6.920289-15.530565-43.066127-38.659626-72.278775-106.30706-72.903537-171.647118-1.474362-128.175541 17.215024-234.482602 149.798909-234.482602 72.061307 0 109.867646 33.19527 129.203909 84.687378-25.228184 9.869014-47.275431 24.144528-65.964818 43.064284-30.473229 30.670425-50.430567 71.635585-61.359279 124.994604-7.563479 37.185264-10.919497 81.298188-10.298422 138.671159 0.429408 43.467891 10.099383 88.216633 27.743815 129.837885 14.273671 33.598877 33.392466 63.655598 55.885708 88.247964-4.404658 2.497201-10.724144 5.445926-19.761985 8.613963-21.424329 7.543207-48.725836 12.985447-77.724702 18.888426C313.694567 651.942796 229.85679 668.728413 184.061249 734.070313 168.92397 755.514915 156.552411 783.256887 146.452844 817.902561" fill="#bed8fa"></path></g></g></svg>